# xmcd CD database file
#
# Track frame offsets:
#	150
#	15050
#	29465
#	44172
#	57430
#	74357
#	89102
#	99800
#	115462
#	132220
#
# Disc length: 2003 seconds
#
# Revision: 2
# Processed by: cddbd v1.5PL3 Copyright (c) Steve Scherf et al.
# Submitted via: CDex 1.50
#
DISCID=8707d10a
DTITLE=Kinky Friedman - Under The Double Ego
DYEAR=1982
DGENRE=Country
TTITLE0=People Who Read People Magazine
TTITLE1=Marilyn And Joe
TTITLE2=The Take-It-Easy Trailer Park
TTITLE3=Skatin' On Thin Ice
TTITLE4=The Gospel Accordin' to John
TTITLE5=Hello, Good Mornin'
TTITLE6=Twirl
TTITLE7=Nashville Casualty And Life
TTITLE8=Keep On The Sunny Side Of Life
TTITLE9=Bonus Track with Panama Red
EXTD=YEAR: 1982
EXTT0=
EXTT1=
EXTT2=
EXTT3=
EXTT4=
EXTT5=
EXTT6=
EXTT7=
EXTT8=
EXTT9=
PLAYORDER=
